Coordinates
version=1
nRows=7
nColumns=40
inDegrees=yes

Units are S.I. units (second, meters, Newtons, ...)
If the header above contains a line with 'inDegrees', this indicates whether rotational values are in degrees (yes) or radians (no).

endheader
time	pelvis_tilt	pelvis_list	pelvis_rotation	pelvis_tx	pelvis_ty	pelvis_tz	hip_flexion_r	hip_adduction_r	hip_rotation_r	knee_angle_r	knee_angle_r_beta	ankle_angle_r	subtalar_angle_r	mtp_angle_r	hip_flexion_l	hip_adduction_l	hip_rotation_l	knee_angle_l	knee_angle_l_beta	ankle_angle_l	subtalar_angle_l	mtp_angle_l	lumbar_extension	lumbar_bending	lumbar_rotation	arm_flex_r	arm_add_r	arm_rot_r	elbow_flex_r	pro_sup_r	wrist_flex_r	wrist_dev_r	arm_flex_l	arm_add_l	arm_rot_l	elbow_flex_l	pro_sup_l	wrist_flex_l	wrist_dev_l
      8.01666667	      3.83736725	      0.90127459	      5.21110906	     -0.35795223	      1.06141759	      0.03760353	     68.82950615	    -13.09488310	     -1.76473505	     82.03931435	      1.43185615	     -6.35995860	    -15.94418725	      0.00000000	     43.47521230	     -4.52005822	      4.43425156	     76.49316482	      1.33505758	    -23.43600202	    -18.88724859	      0.00000000	    -68.76422114	      3.93301197	      0.68150087	     88.35345785	     -8.60393569	      7.57241462	     45.09240416	     88.51031435	      0.00000000	      0.00000000	     89.72361316	     -4.16327592	      9.19535574	     39.47888092	     84.41503707	      0.00000000	      0.00000000
      8.02500000	      3.81646486	      1.21155545	      5.21676984	     -0.35773547	      1.06123654	      0.03801622	     67.54469098	    -13.26028817	     -1.96142972	     80.02380275	      1.39667884	     -6.65173752	    -15.68127990	      0.00000000	     44.46853529	     -4.32309789	      4.42479457	     78.55218924	      1.37099434	    -22.81076751	    -18.34538094	      0.00000000	    -68.68405184	      3.67449443	      0.34857983	     88.20645275	     -8.57415770	      7.41288992	     45.07714470	     88.64478439	      0.00000000	      0.00000000	     89.72112335	     -4.22658845	      9.49842017	     39.46070807	     82.95831233	      0.00000000	      0.00000000
      8.03333333	      3.78585677	      1.47743552	      5.15975048	     -0.35749800	      1.06113346	      0.03859992	     66.18492212	    -13.29095866	     -2.18045742	     77.89500770	      1.35952436	     -7.13126971	    -15.72899168	      0.00000000	     45.52867613	     -4.19657114	      4.40794838	     80.61121351	      1.40693109	    -23.00439987	    -18.56490884	      0.00000000	    -68.61300510	      3.36283913	      0.09693096	     88.10745740	     -8.63872057	      7.43592148	     45.00794976	     88.50295488	      0.00000000	      0.00000000	     89.71897392	     -4.10350362	      9.38016633	     39.37494398	     84.47489605	      0.00000000	      0.00000000
      8.04166667	      3.75402614	      1.67915247	      4.92592147	     -0.35715946	      1.06102025	      0.03957669	     64.74715901	    -13.07818888	     -2.36544390	     75.69314944	      1.32109468	     -7.48681299	    -15.56978325	      0.00000000	     46.62925475	     -4.35044676	      4.25611106	     82.70105828	      1.44340576	    -22.64785032	    -18.51871958	      0.00000000	    -68.53229442	      2.90753603	     -0.04607353	     87.98190132	     -8.65167204	      7.37693080	     44.91095495	     88.52474557	      0.00000000	      0.00000000	     89.72618895	     -4.20457694	      9.89483667	     39.34616842	     83.61610449	      0.00000000	      0.00000000
      8.05000000	      3.89087496	      1.99872106	      4.92919137	     -0.35658837	      1.06114411	      0.04006825	     63.12091434	    -13.22140261	     -2.59162356	     73.60087740	      1.28457764	     -7.93545564	    -15.39240424	      0.00000000	     47.41099197	     -4.18506203	      4.23131619	     84.64063169	      1.47725770	    -21.62678010	    -17.86532622	      0.00000000	    -68.61462593	      2.62935972	     -0.34160980	     87.83791537	     -8.70945473	      7.31709366	     44.86982931	     88.55730126	      0.00000000	      0.00000000	     89.72223147	     -4.12390341	      9.94129885	     39.27477097	     83.34141235	      0.00000000	      0.00000000
      8.05833333	      3.86290474	      2.20339368	      4.84164997	     -0.35614302	      1.06099578	      0.04082867	     61.67256386	    -13.12663091	     -2.70308029	     71.51809256	      1.24822619	     -8.52487667	    -15.14149874	      0.00000000	     48.53608734	     -4.39748774	      4.02898196	     86.66891539	      1.51265793	    -20.96178618	    -17.32124326	      0.00000000	    -68.53324730	      2.28948873	     -0.53791105	     87.66528918	     -8.68145381	      7.03734729	     44.81208568	     88.48884431	      0.00000000	      0.00000000	     89.71216932	     -4.00660420	      9.83791281	     39.19603745	     84.50096559	      0.00000000	      0.00000000
      8.06666667	      3.91920787	      2.46509152	      4.77606332	     -0.35549516	      1.06113661	      0.04145885	     60.02697354	    -13.13873713	     -3.00774890	     69.35096872	      1.21040274	     -9.08244485	    -15.39806362	      0.00000000	     49.49759700	     -4.35267747	      3.97709104	     88.61045880	      1.54654426	    -20.09378476	    -17.16498390	      0.00000000	    -68.53992603	      1.95923094	     -0.77591591	     87.46782104	     -8.73951000	      6.98280090	     44.80354254	     88.49615375	      0.00000000	      0.00000000	     89.71425138	     -4.17468603	     10.65037067	     39.21164098	     83.20205567	      0.00000000	      0.00000000
